<svg viewBox="0 0 94 76" fill="none" xmlns="http://www.w3.org/2000/svg">
  <path
    d="M19.0248 4.28587C17.7186 5.36916 16.2959 6.01818 15.3372 6.3709C14.1998 7.81584 13.1696 9.34201 12.2577 10.9387C12.9172 10.3976 13.8976 9.72307 15.0999 9.28509C17.3858 8.45236 19.6077 8.79005 19.6077 8.79005C19.6077 8.79005 18.1236 10.4779 15.8378 11.3106C14.1556 11.9234 12.508 11.9023 11.7551 11.8485C10.5903 14.0291 9.64299 16.3334 8.94043 18.7351C9.48999 18.0945 10.307 17.2927 11.365 16.6678C13.4598 15.4307 15.706 15.3559 15.706 15.3559C15.706 15.3559 14.556 17.2869 12.4612 18.524C10.9874 19.3944 9.43854 19.6895 8.64983 19.7879C8.04695 22.1096 7.67114 24.5168 7.54612 26.9868C8.07883 26.3097 8.94605 25.3755 10.1183 24.658C12.1932 23.3878 14.438 23.2775 14.438 23.2775C14.438 23.2775 13.3187 25.2264 11.2437 26.4966C9.82065 27.3677 8.31766 27.6933 7.51378 27.8118C7.50443 28.1481 7.49973 28.4854 7.49973 28.8237C7.49973 31.1921 7.73239 33.5075 8.17703 35.7509C8.45132 34.9429 8.92824 33.851 9.71918 32.8431C11.2211 30.9293 13.2866 30.0433 13.2866 30.0433C13.2866 30.0433 12.917 32.2602 11.415 34.174C10.3861 35.4851 9.09266 36.3139 8.38005 36.7059C8.90784 39.0302 9.66426 41.2726 10.6257 43.4115C10.7788 42.5852 11.0793 41.4966 11.6689 40.4383C12.853 38.313 14.7544 37.1147 14.7544 37.1147C14.7544 37.1147 14.7361 39.3622 13.5521 41.4874C12.7899 42.8556 11.7303 43.8397 11.0721 44.3671C12.2513 46.7977 13.6985 49.0861 15.3774 51.1988C15.2013 50.3897 15.0634 49.3135 15.1808 48.1575C15.4264 45.7371 16.6979 43.8838 16.6979 43.8838C16.6979 43.8838 17.5711 45.9548 17.3254 48.3751C17.159 50.0148 16.5218 51.3942 16.128 52.1135C17.6112 53.8641 19.2578 55.4845 21.0455 56.9539C20.7788 56.189 20.5252 55.1878 20.4903 54.0848C20.4133 51.6532 21.4282 49.6479 21.4282 49.6479C21.4282 49.6479 22.568 51.585 22.6449 54.0166C22.6937 55.557 22.3042 56.9264 22.0122 57.7232C24.0079 59.2604 26.1655 60.6153 28.4564 61.7615C27.9916 61.0732 27.4604 60.1171 27.1404 58.99C26.4761 56.6496 26.9745 54.4581 26.9745 54.4581C26.9745 54.4581 28.5499 56.061 29.2142 58.4013C29.6536 59.9493 29.5843 61.4322 29.4871 62.2589C31.7258 63.3 34.0836 64.1449 36.5354 64.7701C35.9875 64.1252 35.3178 63.1845 34.865 62.0301C33.9767 59.7653 34.26 57.5357 34.26 57.5357C34.26 57.5357 35.9836 58.9782 36.8719 61.243C37.4483 62.7127 37.5314 64.1675 37.5187 65.0079C40.0428 65.5853 42.661 65.9312 45.3464 66.021C45.5588 65.4507 46.1082 65.0445 46.7525 65.0445C47.3968 65.0445 47.9461 65.4507 48.1586 66.0209C50.8424 65.9308 53.459 65.585 55.9817 65.0079C55.969 64.1675 56.052 62.7127 56.6285 61.243C57.5168 58.9782 59.2403 57.5357 59.2403 57.5357C59.2403 57.5357 59.5236 59.7653 58.6353 62.0301C58.1826 63.1845 57.5129 64.1252 56.9649 64.7701C59.4167 64.1449 61.7746 63.3 64.0133 62.2589C63.916 61.4322 63.8467 59.9493 64.2861 58.4013C64.9504 56.061 66.5259 54.4581 66.5259 54.4581C66.5259 54.4581 67.0242 56.6496 66.3599 58.99C66.04 60.1171 65.5087 61.0732 65.0439 61.7615C67.3348 60.6153 69.4924 59.2604 71.4881 57.7232C71.1961 56.9264 70.8067 55.557 70.8554 54.0166C70.9324 51.585 72.0721 49.6479 72.0721 49.6479C72.0721 49.6479 73.087 51.6532 73.01 54.0848C72.9751 55.1878 72.7215 56.189 72.4548 56.9539C74.2426 55.4845 75.8891 53.8641 77.3723 52.1135C76.9785 51.3942 76.3413 50.0148 76.1749 48.3751C75.9292 45.9548 76.8024 43.8838 76.8024 43.8838C76.8024 43.8838 78.0739 45.7371 78.3196 48.1575C78.4369 49.3134 78.299 50.3897 78.1229 51.1988C79.8018 49.0861 81.249 46.7977 82.4282 44.3671C81.7701 43.8397 80.7105 42.8556 79.9482 41.4874C78.7642 39.3622 78.746 37.1147 78.746 37.1147C78.746 37.1147 80.6474 38.313 81.8314 40.4383C82.421 41.4966 82.7215 42.5852 82.8747 43.4115C83.8361 41.2726 84.5925 39.0302 85.1203 36.7059C84.4077 36.3139 83.1142 35.4851 82.0853 34.174C80.5834 32.2602 80.2138 30.0433 80.2138 30.0433C80.2138 30.0433 82.2792 30.9293 83.7812 32.8431C84.5721 33.851 85.049 34.943 85.3233 35.7509C85.768 33.5075 86.0006 31.1921 86.0006 28.8237C86.0006 28.4854 85.9959 28.1481 85.9866 27.8118C85.1827 27.6933 83.6797 27.3677 82.2566 26.4966C80.1817 25.2264 79.0624 23.2775 79.0624 23.2775C79.0624 23.2775 81.3071 23.3878 83.3821 24.658C84.5543 25.3755 85.4215 26.3097 85.9542 26.9868C85.8292 24.5168 85.4534 22.1096 84.8505 19.7879C84.0618 19.6895 82.513 19.3944 81.0391 18.524C78.9444 17.2869 77.7943 15.3559 77.7943 15.3559C77.7943 15.3559 80.0406 15.4307 82.1354 16.6678C83.1934 17.2927 84.0103 18.0945 84.5599 18.7351C83.8573 16.3334 82.9101 14.0291 81.7453 11.8485C80.9924 11.9023 79.3448 11.9234 77.6626 11.3106C75.3767 10.4779 73.8926 8.79005 73.8926 8.79005C73.8926 8.79005 76.1146 8.45236 78.4004 9.28509C79.6027 9.72307 80.5832 10.3976 81.2426 10.9387C80.3307 9.34201 79.3005 7.81584 78.1631 6.3709C77.2045 6.01818 75.7817 5.36916 74.4756 4.28587C72.237 2.42922 71.1887 0 71.1887 0C71.1887 0 73.7699 0.580998 76.0085 2.43764C76.9086 3.18418 77.6162 4.02328 78.1407 4.75982C79.1047 5.90472 80.0014 7.10379 80.8252 8.35156C80.5547 7.58666 80.3273 6.63359 80.3348 5.60196C80.353 3.09124 81.7552 1.06596 81.7552 1.06596C81.7552 1.06596 83.1279 3.11135 83.1097 5.62207C83.095 7.65375 82.174 9.36757 81.8231 9.94758C82.9931 11.9262 83.985 14.0142 84.7777 16.1918C84.6773 15.3465 84.6635 14.28 84.9432 13.1903C85.5676 10.7584 87.4176 9.13194 87.4176 9.13194C87.4176 9.13194 88.2554 11.4484 87.631 13.8803C87.1187 15.8761 85.7809 17.3294 85.3175 17.7865C85.9861 19.9211 86.4658 22.1339 86.7379 24.4072C86.9493 23.4574 87.3741 22.171 88.2243 21.0187C89.8187 18.858 92.3053 17.9874 92.3053 17.9874C92.3053 17.9874 92.2068 20.6201 90.6125 22.7809C89.3752 24.4577 87.6005 25.3576 86.8677 25.6766C86.9557 26.7145 87.0006 27.7641 87.0006 28.8237C87.0006 30.4611 86.8927 32.0734 86.6833 33.6547C87.0803 32.7384 87.7375 31.5666 88.7681 30.5903C90.7955 28.6698 93.5003 28.2332 93.5003 28.2332C93.5003 28.2332 92.9181 30.9105 90.8907 32.831C89.2699 34.3664 87.2162 34.9533 86.4576 35.127C86.0057 37.7196 85.2796 40.2217 84.3092 42.6064C84.9597 41.7911 85.9803 40.7447 87.3519 40.0336C89.9025 38.7113 92.7009 39.0488 92.7009 39.0488C92.7009 39.0488 91.364 41.5302 88.8134 42.8526C86.7688 43.9126 84.5649 43.906 83.771 43.8617C82.7332 46.1635 81.4645 48.3473 79.993 50.3876C80.753 49.7191 81.8343 48.9507 83.1601 48.4977C85.8788 47.5688 88.596 48.3181 88.596 48.3181C88.596 48.3181 86.9054 50.5735 84.1867 51.5024C81.9324 52.2727 79.679 51.889 78.9751 51.7355C77.5432 53.5471 75.9461 55.2332 74.2056 56.774C75.1077 56.3815 76.7824 55.8082 78.644 55.9413C81.4217 56.14 83.5636 57.836 83.5636 57.836C83.5636 57.836 81.2021 59.2099 78.4245 59.0112C76.1018 58.8451 74.2237 57.6321 73.6707 57.2391C71.311 59.2542 68.7001 61.0074 65.8897 62.4521C66.773 62.1501 68.2711 61.7799 69.8855 62.0003C72.4384 62.3488 74.3154 64.042 74.3154 64.042C74.3154 64.042 72.0533 65.1703 69.5004 64.8218C67.2147 64.5098 65.4708 63.1199 65.1308 62.8323C62.7949 63.9725 60.3278 64.902 57.7579 65.5949C58.5511 65.5493 60.2456 65.5682 61.8489 66.3429C64.0394 67.4013 65.2303 69.4698 65.2303 69.4698C65.2303 69.4698 62.8696 69.8223 60.6791 68.7639C58.7253 67.8198 57.5667 66.072 57.3392 65.7054C55.316 66.2285 53.2306 66.6053 51.0968 66.8234C56.4286 68.3018 61.042 71.4998 64.7406 74.8665L64.0675 75.606C59.7926 71.7148 54.3675 68.1409 48.0997 67.2049C47.8555 67.7022 47.344 68.0445 46.7525 68.0445C46.1608 68.0445 45.6491 67.7019 45.405 67.2042C39.1353 68.1392 33.7087 71.7139 29.4329 75.606L28.7597 74.8665C32.4583 71.4998 37.0717 68.3018 42.4036 66.8234C40.2698 66.6053 38.1844 66.2285 36.1611 65.7054C35.9336 66.072 34.7751 67.8198 32.8212 68.7639C30.6307 69.8223 28.2701 69.4698 28.2701 69.4698C28.2701 69.4698 29.4609 67.4013 31.6514 66.3429C33.2547 65.5682 34.9492 65.5493 35.7425 65.5949C33.1726 64.902 30.7054 63.9725 28.3695 62.8323C28.0295 63.1199 26.2856 64.5098 24 64.8218C21.447 65.1703 19.1849 64.042 19.1849 64.042C19.1849 64.042 21.0619 62.3488 23.6148 62.0003C25.2292 61.7799 26.7274 62.1501 27.6107 62.4521C24.8003 61.0074 22.1893 59.2542 19.8296 57.2391C19.2767 57.6321 17.3985 58.8451 15.0759 59.0112C12.2982 59.2099 9.93672 57.836 9.93672 57.836C9.93672 57.836 12.0787 56.14 14.8563 55.9413C16.718 55.8082 18.3927 56.3815 19.2948 56.774C17.5542 55.2332 15.9571 53.5471 14.5253 51.7355C13.8213 51.889 11.568 52.2727 9.31363 51.5024C6.59495 50.5735 4.90434 48.3181 4.90434 48.3181C4.90434 48.3181 7.62159 47.5688 10.3403 48.4977C11.666 48.9507 12.7473 49.7191 13.5073 50.3876C12.0359 48.3473 10.7671 46.1635 9.72933 43.8617C8.93543 43.906 6.73155 43.9126 4.68691 42.8526C2.13633 41.5302 0.799408 39.0488 0.799408 39.0488C0.799408 39.0488 3.59781 38.7113 6.1484 40.0336C7.52002 40.7447 8.54065 41.7911 9.19114 42.6064C8.2207 40.2217 7.49466 37.7196 7.04276 35.127C6.28416 34.9533 4.23042 34.3664 2.60963 32.831C0.582228 30.9105 0 28.2332 0 28.2332C0 28.2332 2.70484 28.6698 4.73225 30.5903C5.76284 31.5666 6.42 32.7384 6.81708 33.6547C6.60768 32.0734 6.49973 30.4611 6.49973 28.8237C6.49973 27.7641 6.5446 26.7145 6.63263 25.6765C5.8998 25.3576 4.12519 24.4577 2.8879 22.7809C1.29351 20.6201 1.19508 17.9874 1.19508 17.9874C1.19508 17.9874 3.68166 18.858 5.27604 21.0187C6.12622 22.1709 6.55104 23.4573 6.7624 24.4072C7.03457 22.1339 7.51428 19.921 8.18285 17.7865C7.71946 17.3294 6.38165 15.8761 5.8693 13.8803C5.24498 11.4484 6.08277 9.13194 6.08277 9.13194C6.08277 9.13194 7.93279 10.7584 8.55711 13.1903C8.83685 14.28 8.82305 15.3465 8.7226 16.1918C9.51534 14.0142 10.5072 11.9262 11.6772 9.94758C11.3263 9.36756 10.4053 7.65375 10.3906 5.62207C10.3724 3.11135 11.7451 1.06596 11.7451 1.06596C11.7451 1.06596 13.1473 3.09124 13.1655 5.60196C13.173 6.63358 12.9456 7.58665 12.6752 8.35155C13.4989 7.10378 14.3957 5.90469 15.3597 4.75978C15.8841 4.02326 16.5918 3.18417 17.4919 2.43764C19.7305 0.580998 22.3116 0 22.3116 0C22.3116 0 21.2634 2.42922 19.0248 4.28587Z"
    fill="black"
  />
</svg>
