<svg width="48" height="42" viewBox="0 0 48 42" fill="none" xmlns="http://www.w3.org/2000/svg">
<path d="M9.00396 14.7434C8.76965 22.2212 19.0013 29.6224 24 32C28.9987 29.6224 39.2304 22.2212 38.996 14.7434C38.996 10.6018 36.3014 6 31.6152 6C26.9289 6 24 10.6018 24 10.6018C24 10.6018 21.0711 6 16.3848 6C11.6986 6 9.00396 10.6018 9.00396 14.7434Z" stroke="black"/>
<path d="M14.0011 34.354C13.9386 36.3673 16.667 38.3599 18 39C19.333 38.3599 22.0614 36.3673 21.9989 34.354C21.9989 33.2389 21.2804 32 20.0307 32C18.781 32 18 33.2389 18 33.2389C18 33.2389 17.219 32 15.9693 32C14.7196 32 14.0011 33.2389 14.0011 34.354Z" stroke="black"/>
<path d="M6.40471 28.48C6.34223 30.4932 9.07067 32.4859 10.4037 33.126C11.7366 32.4859 14.4651 30.4932 14.4026 28.48C14.4026 27.3649 13.684 26.126 12.4344 26.126C11.1847 26.126 10.4037 27.3649 10.4037 27.3649C10.4037 27.3649 9.62261 26.126 8.37294 26.126C7.12327 26.126 6.40471 27.3649 6.40471 28.48Z" stroke="black"/>
<path d="M0.900164 21.0945C0.837682 23.1077 3.56613 25.1004 4.89911 25.7405C6.23209 25.1004 8.96054 23.1077 8.89805 21.0945C8.89805 19.9794 8.17949 18.7405 6.92982 18.7405C5.68015 18.7405 4.89911 19.9794 4.89911 19.9794C4.89911 19.9794 4.11806 18.7405 2.86839 18.7405C1.61872 18.7405 0.900164 19.9794 0.900164 21.0945Z" stroke="black"/>
<path d="M26.9699 35.3745C26.9699 35.5447 26.7499 35.9009 26.626 36.2416C26.613 36.2773 26.6021 36.3135 26.5931 36.35M26.5931 36.35C26.514 36.67 26.5841 37.0151 26.7499 37.2792C26.9971 37.6729 27.7256 37.7903 27.7939 37.9472C27.8436 38.0614 27.739 38.4233 28.0594 38.8353C28.3158 39.1649 29.1811 39.215 29.584 39.215C29.9868 39.215 30.8522 39.1649 31.1086 38.8353C31.429 38.4233 31.3244 38.0614 31.3741 37.9472C31.4424 37.7903 32.1709 37.6729 32.4181 37.2792C32.5839 37.0151 32.654 36.67 32.5749 36.35M26.5931 36.35C26.4234 36.1074 26.084 35.3898 26.084 34.4606C26.084 33.2991 26.8583 31.5801 29.584 31.5801C32.3096 31.5801 33.084 33.2991 33.084 34.4606C33.084 35.3898 32.7446 36.1074 32.5749 36.35M32.084 35.3745C32.084 35.5447 32.4181 35.9009 32.5419 36.2416C32.5549 36.2773 32.5659 36.3135 32.5749 36.35" stroke="black" stroke-linecap="round"/>
<path d="M30.0273 36.5895C30.2498 37.0423 30.7557 37.2607 31.1572 37.0772C31.5587 36.8938 31.7037 36.378 31.4811 35.9252C31.2012 35.6091 30.7121 35.3514 30.3512 35.4374C29.9498 35.6208 29.8047 36.1366 30.0273 36.5895Z" fill="black"/>
<path d="M29.1438 36.5857C28.9212 37.0385 28.4153 37.2569 28.0138 37.0735C27.6124 36.89 27.4673 36.3742 27.6899 35.9214C27.939 35.599 28.4526 35.4184 28.8198 35.4336C29.2213 35.6171 29.3663 36.1329 29.1438 36.5857Z" fill="black"/>
<path d="M29.1944 38.3687C29.3765 38.3687 29.5333 38.1991 29.589 38.0772C29.6446 38.1991 29.8015 38.3687 29.9836 38.3687C30.1657 38.3687 30.2214 38.2126 30.2264 38.1345C30.2366 38.0175 30.1483 37.7186 29.9836 37.5199C29.8606 37.3714 29.589 37.2232 29.589 37.2232C29.589 37.2232 29.3174 37.3714 29.1944 37.5199C29.0297 37.7186 28.9414 38.0175 28.9515 38.1345C28.9566 38.2126 29.0122 38.3687 29.1944 38.3687Z" fill="black"/>
<path d="M34.3058 29.8784C34.3058 30.0486 34.0858 30.4048 33.9619 30.7455C33.9489 30.7812 33.938 30.8174 33.929 30.8539M33.929 30.8539C33.8499 31.1739 33.92 31.519 34.0858 31.7831C34.333 32.1768 35.0615 32.2942 35.1298 32.4512C35.1795 32.5653 35.0749 32.9272 35.3953 33.3392C35.6517 33.6688 36.517 33.7189 36.9199 33.7189C37.3227 33.7189 38.1881 33.6688 38.4445 33.3392C38.7649 32.9272 38.6603 32.5653 38.71 32.4512C38.7783 32.2942 39.5068 32.1768 39.754 31.7831C39.9198 31.519 39.9899 31.1739 39.9108 30.8539M33.929 30.8539C33.7593 30.6113 33.4199 29.8937 33.4199 28.9645C33.4199 27.803 34.1942 26.084 36.9199 26.084C39.6456 26.084 40.4199 27.803 40.4199 28.9645C40.4199 29.8937 40.0805 30.6113 39.9108 30.8539M39.4199 29.8784C39.4199 30.0486 39.754 30.4048 39.8779 30.7455C39.8908 30.7812 39.9018 30.8174 39.9108 30.8539" stroke="black" stroke-linecap="round"/>
<path d="M37.3632 31.0934C37.5857 31.5462 38.0916 31.7646 38.4931 31.5811C38.8946 31.3977 39.0396 30.8819 38.817 30.4291C38.5371 30.113 38.048 29.8553 37.6871 29.9413C37.2857 30.1247 37.1406 30.6405 37.3632 31.0934Z" fill="black"/>
<path d="M36.4797 31.0896C36.2571 31.5424 35.7512 31.7608 35.3498 31.5774C34.9483 31.3939 34.8032 30.8781 35.0258 30.4253C35.275 30.1029 35.7885 29.9224 36.1557 29.9375C36.5572 30.121 36.7022 30.6368 36.4797 31.0896Z" fill="black"/>
<path d="M36.5303 32.8726C36.7124 32.8726 36.8692 32.703 36.9249 32.5811C36.9805 32.703 37.1374 32.8726 37.3195 32.8726C37.5016 32.8726 37.5573 32.7165 37.5624 32.6384C37.5725 32.5214 37.4842 32.2225 37.3195 32.0238C37.1965 31.8754 36.9249 31.7271 36.9249 31.7271C36.9249 31.7271 36.6533 31.8754 36.5303 32.0238C36.3656 32.2225 36.2773 32.5214 36.2874 32.6384C36.2925 32.7165 36.3481 32.8726 36.5303 32.8726Z" fill="black"/>
<path d="M40.3058 22.7945C40.3058 22.9646 40.0858 23.3208 39.9619 23.6615C39.9489 23.6972 39.938 23.7334 39.929 23.7699M39.929 23.7699C39.8499 24.09 39.92 24.435 40.0858 24.6991C40.333 25.0928 41.0615 25.2102 41.1298 25.3672C41.1795 25.4814 41.0749 25.8433 41.3953 26.2553C41.6517 26.5849 42.517 26.635 42.9199 26.635C43.3227 26.635 44.1881 26.5849 44.4445 26.2553C44.7649 25.8433 44.6603 25.4814 44.71 25.3672C44.7783 25.2102 45.5068 25.0928 45.754 24.6991C45.9198 24.435 45.9899 24.09 45.9108 23.7699M39.929 23.7699C39.7593 23.5273 39.4199 22.8097 39.4199 21.8805C39.4199 20.719 40.1942 19 42.9199 19C45.6456 19 46.4199 20.719 46.4199 21.8805C46.4199 22.8097 46.0805 23.5273 45.9108 23.7699M45.4199 22.7945C45.4199 22.9646 45.754 23.3208 45.8779 23.6615C45.8908 23.6972 45.9018 23.7334 45.9108 23.7699" stroke="black" stroke-linecap="round"/>
<path d="M43.3632 24.0094C43.5857 24.4622 44.0916 24.6806 44.4931 24.4971C44.8946 24.3137 45.0396 23.7979 44.817 23.3451C44.5371 23.029 44.048 22.7713 43.6871 22.8573C43.2857 23.0408 43.1406 23.5565 43.3632 24.0094Z" fill="black"/>
<path d="M42.4797 24.0056C42.2571 24.4584 41.7512 24.6768 41.3498 24.4934C40.9483 24.3099 40.8032 23.7941 41.0258 23.3413C41.275 23.0189 41.7885 22.8384 42.1557 22.8535C42.5572 23.037 42.7022 23.5528 42.4797 24.0056Z" fill="black"/>
<path d="M42.5303 25.7886C42.7124 25.7886 42.8692 25.619 42.9249 25.4971C42.9805 25.619 43.1374 25.7886 43.3195 25.7886C43.5016 25.7886 43.5573 25.6325 43.5624 25.5544C43.5725 25.4374 43.4842 25.1385 43.3195 24.9398C43.1965 24.7914 42.9249 24.6432 42.9249 24.6432C42.9249 24.6432 42.6533 24.7914 42.5303 24.9398C42.3656 25.1385 42.2773 25.4374 42.2874 25.5544C42.2925 25.6325 42.3481 25.7886 42.5303 25.7886Z" fill="black"/>
</svg>
