<svg width="48" height="42" viewBox="0 0 48 42" fill="none" xmlns="http://www.w3.org/2000/svg">
<path d="M39.7726 23.8639C40.5822 22.1419 39.0613 21.5148 37.8559 21.4251C35.0421 20.8247 29.7023 28.7478 30.6942 21.6036C31.1804 19.5746 32.0038 17.3045 32.5088 15.1158C32.949 13.3895 33.8305 10.8959 32.4838 9.56391C30.8854 8.59362 30.1079 9.86807 29.6159 12.3846C28.9572 14.4722 28.6103 16.1616 28.0842 17.5168C27.0453 19.4878 26.9618 17.1498 26.748 15.7189C26.7233 13.7028 26.6855 11.4892 26.51 9.20728C26.3094 6.43886 25.6629 4.29871 23.5259 5.21505C21.8457 6.37383 22.5816 10.187 22.797 11.9641C23.0358 14.1843 23.7585 18.6093 22.5004 18.4388C21.4009 18.1336 21.4021 16.7548 20.9302 15.813C20.0697 13.3141 19.7 10.7518 18.7416 8.4767C17.6868 6.65291 15.727 8.01041 15.8145 9.80532C16.1002 12.0476 16.7509 14.1722 17.5987 16.8684C17.7998 17.824 19.2286 19.9473 17.6761 19.515C16.0284 17.848 14.5752 15.299 13.533 13.8657C12.7338 12.8032 11.0676 11.0704 10.0756 12.8151C9.68511 14.6525 10.8874 16.5347 11.859 18.3193C12.7604 20.1285 14.7371 21.7985 14.7779 24.0687C14.7779 27.1153 17.0267 33.0676 18.7416 34.0978C20.4564 35.128 28.0842 35.7003 30.1707 33.4146C32.2572 31.129 33.4665 30.1001 34.8707 28.2587C36.6469 26.9523 37.3639 24.9574 39.7726 23.8639Z" stroke="black"/>
</svg>
