<svg width="48" height="42" viewBox="0 0 48 42" fill="none" xmlns="http://www.w3.org/2000/svg">
  <path d="M45 20.7097C45 19.4194 35.8447 12 24 12C12.1553 12 3 19.4194 3 20.7097C3 22 12.1553 32 24 32C35.8447 32 45 22 45 20.7097Z" stroke="black"/>
  <path d="M4.12692 22.5L0.990479 24M8.2621 26.25L3.80912 30M12.8817 29.2513L9.39366 34.3543M18.2086 31.2427L16.3803 37M23.9988 32.1611L23.9997 38M29.8605 31.4526L31.6203 37M35.1157 29.2513L38.6058 34.3543M39.7379 26.25L44.1908 30M43.873 22.5L47.0095 24" stroke="black" stroke-linecap="round"/>
  </svg>
  