<svg width="48" height="42" viewBox="0 0 48 42" fill="none" xmlns="http://www.w3.org/2000/svg">
<path d="M25.16 8.98241C24.6469 10.0259 24.2879 12.4237 24.0676 14.8104C24.0568 14.928 23.8803 14.9355 23.8599 14.8192C23.4858 12.6827 22.9644 10.2934 22.3861 9.36757C21.242 7.53622 19.2613 6.6382 16.9718 7.74623C15.3618 8.52539 15.2013 9.87979 15.0862 10.8517C15.0376 11.2619 14.997 11.6039 14.859 11.8058C14.6946 12.0462 14.2317 12.0627 13.6402 12.0837C12.5582 12.1223 11.046 12.1762 10.1457 13.6446C8.75318 15.9156 9.95183 18.4458 11.75 19.4996C12.5269 19.9549 15.5253 20.5963 16.87 20.8684C16.9827 20.8912 16.9745 21.0622 16.8603 21.076C15.6621 21.2212 13.2122 21.5498 12.5474 21.8823C10.6241 22.8444 9.53743 24.7397 10.3995 27.1477C11.0058 28.8409 12.3264 29.1388 13.274 29.3526C13.674 29.4428 14.0075 29.518 14.1928 29.6769C14.4134 29.866 14.3829 30.3319 14.3439 30.9271C14.2725 32.0161 14.1727 33.5379 15.531 34.5892C17.6318 36.2152 20.2505 35.2692 21.4724 33.5726C22.1593 32.619 23.0739 29.8549 23.537 27.9274C24 26 25 26.5 25.2603 27.4734C25.5206 28.4468 26.8221 32.2951 27.5715 33.2103C28.9381 34.8794 31.0164 35.5152 33.1468 34.1216C34.645 33.1417 34.6326 31.7777 34.6237 30.799C34.6199 30.3859 34.6168 30.0414 34.7281 29.8234C34.8607 29.5638 35.3178 29.4879 35.9017 29.3909C36.97 29.2134 38.463 28.9654 39.17 27.3932C40.2634 24.9616 38.7541 22.6062 36.8372 21.7924C35.7244 21.3201 33.1575 21.1079 30.6783 21.0426C30.5605 21.0395 30.5412 20.8648 30.6555 20.8363C32.7307 20.3199 35.0266 19.6435 35.8966 19.0062C37.6335 17.734 38.3909 15.6823 37.142 13.4533C36.2637 11.8858 34.9123 11.8144 33.9426 11.7632C33.5333 11.7416 33.192 11.7235 32.9829 11.5981C32.734 11.4488 32.687 10.9843 32.6268 10.3908C32.5168 9.30514 32.363 7.78794 30.8496 6.97998C28.509 5.7304 26.0838 7.10398 25.16 8.98241Z" stroke="black" stroke-linecap="round"/>
<path d="M24.9743 27.1581C25.0617 26.8961 24.9201 26.613 24.6581 26.5257C24.3961 26.4383 24.113 26.5799 24.0257 26.8419L24.9743 27.1581ZM28.4019 37.4903C28.6727 37.5444 28.9361 37.3688 28.9903 37.0981C29.0444 36.8273 28.8688 36.5639 28.5981 36.5097L28.4019 37.4903ZM24.5 27C24.0257 26.8419 24.0255 26.8422 24.0254 26.8426C24.0254 26.8427 24.0253 26.843 24.0252 26.8433C24.025 26.8437 24.0249 26.8442 24.0247 26.8448C24.0244 26.8458 24.024 26.8469 24.0236 26.8482C24.0228 26.8506 24.0219 26.8535 24.0209 26.8567C24.0189 26.8631 24.0166 26.871 24.0139 26.8805C24.0085 26.8993 24.0018 26.9243 23.9943 26.9556C23.9793 27.0182 23.961 27.1059 23.9433 27.2208C23.908 27.4507 23.875 27.7887 23.875 28.25C23.875 29.1724 24.0067 30.5884 24.5149 32.6213L25.4851 32.3787C24.9933 30.4116 24.875 29.0776 24.875 28.25C24.875 27.8363 24.9045 27.5493 24.9317 27.3729C24.9453 27.2847 24.9582 27.224 24.9667 27.189C24.9709 27.1714 24.9739 27.1602 24.9754 27.1552C24.9761 27.1527 24.9764 27.1517 24.9763 27.1522C24.9762 27.1524 24.976 27.153 24.9757 27.154C24.9755 27.1545 24.9753 27.1551 24.9751 27.1558C24.975 27.1561 24.9749 27.1565 24.9747 27.1569C24.9747 27.1571 24.9746 27.1574 24.9746 27.1575C24.9744 27.1578 24.9743 27.1581 24.5 27ZM24.5149 32.6213C25.0391 34.7181 25.9687 35.9373 26.8049 36.6341C27.2201 36.9801 27.6052 37.1914 27.8933 37.3175C28.0373 37.3805 28.1571 37.4222 28.2445 37.4489C28.2882 37.4622 28.3238 37.4718 28.3504 37.4785C28.3637 37.4818 28.3747 37.4844 28.3833 37.4863C28.3876 37.4873 28.3914 37.4881 28.3945 37.4887C28.396 37.4891 28.3974 37.4894 28.3987 37.4896C28.3993 37.4898 28.3999 37.4899 28.4004 37.49C28.4007 37.49 28.4011 37.4901 28.4012 37.4901C28.4016 37.4902 28.4019 37.4903 28.5 37C28.5981 36.5097 28.5984 36.5098 28.5987 36.5098C28.5988 36.5099 28.5991 36.5099 28.5993 36.51C28.5997 36.51 28.6001 36.5101 28.6004 36.5102C28.601 36.5103 28.6015 36.5104 28.6019 36.5105C28.6026 36.5106 28.6027 36.5107 28.6022 36.5106C28.6014 36.5104 28.5982 36.5097 28.5929 36.5083C28.5824 36.5057 28.5633 36.5007 28.5367 36.4925C28.4835 36.4763 28.4002 36.4477 28.2942 36.4013C28.0823 36.3086 27.7799 36.1449 27.4451 35.8659C26.7813 35.3127 25.9609 34.2819 25.4851 32.3787L24.5149 32.6213Z" fill="black"/>
</svg>
