<svg viewBox="0 0 95 72" fill="none" xmlns="http://www.w3.org/2000/svg">
  <path
    d="M21.0358 8.21357C21.5345 7.52057 22.0529 6.62024 22.3657 5.5688C23.1177 3.04113 22.3972 0.597351 22.3972 0.597351C22.3972 0.597351 20.4574 2.25173 19.7054 4.77939C19.0948 6.83185 19.455 8.82899 19.6121 9.50739C17.8838 11.155 16.2929 12.965 14.8658 14.9232C15.2227 14.1017 15.5657 13.0297 15.6324 11.8478C15.7805 9.22244 14.5094 7.04868 14.5094 7.04868C14.5094 7.04868 12.9981 9.13145 12.85 11.7568C12.7284 13.9139 13.5648 15.7662 13.867 16.3583C12.5727 18.3073 11.4354 20.3901 10.4783 22.5941C10.5673 21.5781 10.5553 20.1613 10.0951 18.7552C9.23223 16.1192 7.12063 14.5191 7.12063 14.5191C7.12063 14.5191 6.40798 17.1927 7.27082 19.8287C7.94047 21.8745 9.36226 23.2964 9.96539 23.8305C9.563 24.8476 9.19837 25.8889 8.87364 26.9535C8.37172 28.599 7.98098 30.2509 7.69701 31.9015C7.59817 30.8649 7.32881 29.4949 6.64175 28.2125C5.2911 25.6916 2.83772 24.4638 2.83772 24.4638C2.83772 24.4638 2.57417 27.3234 3.92482 29.8443C5.00507 31.8606 6.79072 33.0496 7.46239 33.4449C7.10037 36.1856 7.0295 38.9159 7.22956 41.5996C6.85817 40.5891 6.20156 39.2327 5.10236 38.1128C3.06798 36.0402 0.287903 35.5628 0.287903 35.5628C0.287903 35.5628 0.806215 38.4458 2.8406 40.5184C4.47498 42.1835 6.59066 42.8191 7.35943 43.0046C7.64938 45.6315 8.19887 48.2071 8.98855 50.6968C8.467 49.797 7.66215 48.692 6.51806 47.8391C4.20232 46.1127 1.37367 46.0727 1.37367 46.0727C1.37367 46.0727 2.29955 48.8318 4.61529 50.5582C6.54509 51.9969 8.8311 52.2644 9.53946 52.3136C12.2372 59.7125 17.086 66.2607 23.5534 71.0087L24.1452 70.2026C18.1885 65.8295 13.6407 59.8916 10.9378 53.1685C11.5335 52.5635 12.5722 51.36 13.2369 49.7539C14.2136 47.394 14.013 45.0587 14.013 45.0587C14.013 45.0587 12.2289 46.5496 11.2522 48.9095C10.7815 50.0468 10.5842 51.1783 10.5062 52.0456C9.54552 49.4271 8.86142 46.6988 8.47865 43.9051C9.26923 43.568 10.5875 42.8881 11.7384 41.7334C13.5222 39.9438 14.2284 37.6913 14.2284 37.6913C14.2284 37.6913 12.0425 38.3403 10.2587 40.13C9.3674 41.0242 8.74515 42.034 8.3456 42.8206C8.08202 40.3892 8.04647 37.9131 8.25503 35.4211C9.05634 35.2354 10.5486 34.7803 11.9355 33.7626C13.9586 32.278 14.9915 30.1587 14.9915 30.1587C14.9915 30.1587 12.7444 30.4462 10.7213 31.9308C9.65483 32.7133 8.86352 33.6723 8.35363 34.4042C8.61647 32.0205 9.10397 29.6259 9.83013 27.2453C9.93383 26.9053 10.0417 26.5678 10.1537 26.2327C10.9589 26.3481 12.4963 26.4596 14.1244 25.9996C16.4983 25.329 18.1662 23.6975 18.1662 23.6975C18.1662 23.6975 15.9852 23.1535 13.6113 23.8241C12.2702 24.203 11.1544 24.8886 10.4374 25.4133C11.3138 22.9682 12.4104 20.6593 13.6977 18.5027C14.4818 18.6339 16.0546 18.7899 17.7321 18.3452C20.1148 17.7135 21.8066 16.1091 21.8066 16.1091C21.8066 16.1091 19.6351 15.5289 17.2524 16.1606C16.0469 16.4801 15.0183 17.0487 14.2961 17.5325C15.7038 15.323 17.3155 13.283 19.0971 11.4307C19.7982 11.704 21.371 12.2087 23.1723 12.0836C25.6139 11.9139 27.5507 10.6513 27.5507 10.6513C27.5507 10.6513 25.5288 9.66373 23.0872 9.83339C21.795 9.92319 20.6442 10.3191 19.847 10.672C21.2115 9.32861 22.6679 8.09118 24.2023 6.9673C25.2278 6.89354 26.79 6.65791 28.3735 5.95126C31.0846 4.7414 32.8316 2.60898 32.8316 2.60898C32.8316 2.60898 30.1829 2.43813 27.4718 3.64799C26.3024 4.16985 25.3124 4.86335 24.5646 5.48333C23.3415 6.32599 22.1631 7.23722 21.0358 8.21357Z"
    fill="black"
  />
  <path
    d="M85.5172 52.3136C82.8194 59.7125 77.9706 66.2607 71.5032 71.0087L70.9114 70.2026C76.8682 65.8295 81.4159 59.8916 84.1188 53.1685C83.5231 52.5635 82.4844 51.36 81.8197 49.7539C80.843 47.394 81.0436 45.0587 81.0436 45.0587C81.0436 45.0587 82.8277 46.5496 83.8044 48.9095C84.2751 50.0468 84.4724 51.1783 84.5505 52.0456C85.5111 49.4271 86.1952 46.6988 86.578 43.9051C85.7874 43.568 84.4691 42.8881 83.3182 41.7334C81.5344 39.9438 80.8282 37.6913 80.8282 37.6913C80.8282 37.6913 83.0141 38.3403 84.7979 40.13C85.6892 41.0242 86.3115 42.034 86.711 42.8206C86.9746 40.3892 87.0101 37.9131 86.8016 35.421C86.0003 35.2354 84.508 34.7803 83.1211 33.7626C81.098 32.278 80.0651 30.1587 80.0651 30.1587C80.0651 30.1587 82.3123 30.4462 84.3353 31.9308C85.4018 32.7133 86.1931 33.6723 86.703 34.4042C86.4401 32.0205 85.9526 29.6259 85.2265 27.2453C85.1228 26.9053 85.0149 26.5678 84.903 26.2327C84.0977 26.3481 82.5603 26.4596 80.9322 25.9996C78.5583 25.329 76.8904 23.6975 76.8904 23.6975C76.8904 23.6975 79.0714 23.1535 81.4453 23.8241C82.7864 24.203 83.9022 24.8886 84.6193 25.4134C83.7428 22.9682 82.6462 20.6593 81.3589 18.5027C80.5748 18.6339 79.002 18.7899 77.3245 18.3452C74.9418 17.7135 73.25 16.1091 73.25 16.1091C73.25 16.1091 75.4215 15.5289 77.8042 16.1606C79.0097 16.4801 80.0383 17.0487 80.7605 17.5325C79.3528 15.323 77.7411 13.283 75.9595 11.4307C75.2584 11.704 73.6856 12.2087 71.8843 12.0836C69.4427 11.9139 67.506 10.6513 67.506 10.6513C67.506 10.6513 69.5278 9.66373 71.9694 9.83339C73.2616 9.92319 74.4124 10.3191 75.2096 10.672C73.8451 9.3286 72.3887 8.09117 70.8543 6.9673C69.8288 6.89354 68.2666 6.6579 66.6832 5.95126C63.972 4.7414 62.2251 2.60898 62.2251 2.60898C62.2251 2.60898 64.8737 2.43813 67.5848 3.64799C68.7543 4.16987 69.7443 4.8634 70.4921 5.48339C71.7152 6.32605 72.8936 7.23726 74.0209 8.21361C73.5221 7.5206 73.0037 6.62026 72.6909 5.5688C71.9389 3.04113 72.6595 0.597351 72.6595 0.597351C72.6595 0.597351 74.5993 2.25173 75.3513 4.77939C75.9619 6.83186 75.6016 8.82901 75.4445 9.5074C77.1729 11.1551 78.7637 12.965 80.1909 14.9232C79.8339 14.1018 79.4909 13.0298 79.4243 11.8478C79.2762 9.22244 80.5473 7.04868 80.5473 7.04868C80.5473 7.04868 82.0585 9.13145 82.2066 11.7568C82.3283 13.914 81.4918 15.7662 81.1896 16.3583C82.4839 18.3073 83.6212 20.3901 84.5784 22.5941C84.4893 21.5781 84.5013 20.1613 84.9616 18.7552C85.8244 16.1192 87.936 14.5191 87.936 14.5191C87.936 14.5191 88.6487 17.1927 87.7858 19.8287C87.1162 21.8745 85.6943 23.2964 85.0912 23.8305C85.4936 24.8476 85.8582 25.889 86.183 26.9535C86.6849 28.599 87.0757 30.251 87.3596 31.9017C87.4585 30.865 87.7278 29.495 88.4149 28.2125C89.7656 25.6916 92.2189 24.4638 92.2189 24.4638C92.2189 24.4638 92.4825 27.3234 91.1318 29.8443C90.0516 31.8606 88.2659 33.0497 87.5942 33.4449C87.9562 36.1856 88.0271 38.9159 87.8271 41.5996C88.1984 40.5892 88.855 39.2327 89.9543 38.1128C91.9887 36.0402 94.7687 35.5628 94.7687 35.5628C94.7687 35.5628 94.2504 38.4458 92.216 40.5184C90.5816 42.1836 88.466 42.8191 87.6972 43.0046C87.4072 45.6315 86.8577 48.2071 86.068 50.6969C86.5896 49.7971 87.3945 48.692 88.5386 47.8391C90.8543 46.1127 93.683 46.0727 93.683 46.0727C93.683 46.0727 92.7571 48.8318 90.4413 50.5582C88.5115 51.9969 86.2255 52.2644 85.5172 52.3136Z"
    fill="black"
  />
</svg>
