<svg width="48" height="42" viewBox="0 0 48 42" fill="none" xmlns="http://www.w3.org/2000/svg">
<path d="M39.3235 6.38126L18.4237 15.2112C16.4952 16.0729 13.8011 17.5205 14.516 20.0577M38.203 15.2524L27.6149 22.125M18.6516 12.7727L34.2749 5.01569M26.1314 15.7465L45 5.95256M41.9864 10.316L28.0262 18.2119M32.9143 22.3693L26.5031 26.7898M33.8497 24.7976L24.6889 31.5877L19.3414 33.7554L18.848 32.4745L14.6789 34.9833H3.03126C3.03126 34.9833 2.78507 31.6535 3.67449 30.7411C4.5639 29.8287 11.0956 28.4608 12.3684 24.2188C13.5131 20.404 9.71398 15.7465 9.71398 15.7465L26.7112 4.98328" stroke="black" stroke-linecap="round"/>
</svg>
